HIERARCHY
ROOT Hips
{
	OFFSET 0.000000 0.000000 0.000000 
	CHANNELS 6 Xposition Yposition Zposition Zrotation Yrotation Xrotation
	JOINT LeftUpLeg
	{
		OFFSET 1.363060 -1.794630 0.839290 
		CHANNELS 3 Zrotation Yrotation Xrotation
		JOINT LeftLeg
		{
			OFFSET 2.448110 -6.726130 0.000000 
			CHANNELS 3 Zrotation Yrotation Xrotation
			JOINT LeftFoot
			{
				OFFSET 2.562200 -7.039590 0.000000 
				CHANNELS 3 Zrotation Yrotation Xrotation
				JOINT LeftToeBase
				{
					OFFSET 0.157640 -0.433110 2.322550 
					CHANNELS 3 Zrotation Yrotation Xrotation
					End Site
					{
						OFFSET 0.000000 0.000000 0.000000 
					}
				}
			}
		}
	}
	JOINT RightUpLeg
	{
		OFFSET -1.305520 -1.794630 0.839290 
		CHANNELS 3 Zrotation Yrotation Xrotation
		JOINT RightLeg
		{
			OFFSET -2.542530 -6.985550 0.000000 
			CHANNELS 3 Zrotation Yrotation Xrotation
			JOINT RightFoot
			{
				OFFSET -2.568260 -7.056230 0.000000 
				CHANNELS 3 Zrotation Yrotation Xrotation
				JOINT RightToeBase
				{
					OFFSET -0.164730 -0.452590 2.363150 
					CHANNELS 3 Zrotation Yrotation Xrotation
					End Site
					{
						OFFSET 0.000000 0.000000 0.000000 
					}
				}
			}
		}
	}
	JOINT Spine
	{
		OFFSET 0.028270 2.035590 -0.193380 
		CHANNELS 3 Zrotation Yrotation Xrotation
		JOINT Spine1
		{
			OFFSET 0.056720 2.048850 -0.042750 
			CHANNELS 3 Zrotation Yrotation Xrotation
			JOINT Neck1
			{
				OFFSET -0.054170 1.746240 0.172020 
				CHANNELS 3 Zrotation Yrotation Xrotation
				JOINT Head
				{
					OFFSET 0.104070 1.761360 -0.123970 
					CHANNELS 3 Zrotation Yrotation Xrotation
					End Site
					{
						OFFSET 0.000000 0.000000 0.000000 
					}
				}
			}
			JOINT LeftArm
			{
				OFFSET 3.362410 1.200890 -0.311210 
				CHANNELS 3 Zrotation Yrotation Xrotation
				JOINT LeftForeArm
				{
					OFFSET 4.983000 -0.000000 -0.000000 
					CHANNELS 3 Zrotation Yrotation Xrotation
					JOINT LeftHand
					{
						OFFSET 3.483560 -0.000000 -0.000000 
						CHANNELS 3 Zrotation Yrotation Xrotation
						JOINT LeftHandIndex1
						{
							OFFSET 0.715260 -0.000000 -0.000000 
							CHANNELS 3 Zrotation Yrotation Xrotation
							End Site
							{
								OFFSET 0.000000 0.000000 0.000000 
							}
						}
					}
				}
			}
			JOINT RightArm
			{
				OFFSET -3.136600 1.374050 -0.404650 
				CHANNELS 3 Zrotation Yrotation Xrotation
				JOINT RightForeArm
				{
					OFFSET -5.241900 -0.000000 -0.000000 
					CHANNELS 3 Zrotation Yrotation Xrotation
					JOINT RightHand
					{
						OFFSET -3.444170 -0.000000 -0.000000 
						CHANNELS 3 Zrotation Yrotation Xrotation
						JOINT RightHandIndex1
						{
							OFFSET -0.622530 -0.000000 -0.000000 
							CHANNELS 3 Zrotation Yrotation Xrotation
							End Site
							{
								OFFSET 0.000000 0.000000 0.000000 
							}
						}
					}
				}
			}
		}
	}
}
MOTION
Frames: 6
Frame Time: 0.041667
-0.367254 18.377199 7.986696 -8.797189 -1.600431 13.090540 -21.648861 -41.591704 18.169894 -3.756905 -2.466968 -2.948258 -13.979255 43.671436 -28.001649 0.371000 3.912500 10.830700 23.858958 26.835432 0.754824 3.484947 -0.740056 2.921913 7.657538 -24.990981 -1.036504 -0.009300 -0.621500 1.707800 21.340083 7.596375 -22.994122 -12.015058 -0.463185 -8.768039 27.090785 -21.211089 13.515884 5.304800 -9.483800 6.034400 -85.578822 8.002485 7.176960 10.976483 -12.225006 -1.780776 -0.250372 1.654884 27.472594 -7.125000 0.000000 0.000000 77.958956 -12.167965 14.115524 -12.747009 17.178899 -2.449915 0.928274 1.546473 40.074129 7.125000 0.000000 0.000000 
-0.367884 18.376463 7.985856 -8.745049 -1.620879 13.148131 -21.574363 -41.403953 18.003514 -3.754533 -2.461931 -2.955574 -13.893571 43.503302 -27.864311 0.383200 3.975500 11.007700 23.831346 26.874661 0.774671 3.485747 -0.751837 2.940476 7.656782 -24.984159 -1.108571 -0.008500 -0.596000 1.637700 21.208026 7.578895 -23.651190 -11.899993 -0.497611 -8.638441 27.063665 -21.064403 13.395108 5.342400 -9.437400 5.949700 -85.648979 8.314831 7.172089 11.048979 -12.314980 -1.801868 -0.267122 1.646401 27.144814 -7.125000 0.000000 0.000000 78.024176 -12.418020 14.510315 -12.734141 17.172871 -2.449629 0.928671 1.545670 39.947859 7.125000 0.000000 0.000000 
-0.368305 18.376568 7.985120 -8.734384 -1.631866 13.193487 -21.665038 -41.487020 18.123186 -3.757914 -2.459245 -2.962885 -13.895494 43.551318 -28.034192 0.393200 4.026500 11.151400 23.843953 26.919396 0.806268 3.484495 -0.771101 2.980289 7.633205 -24.916157 -1.170989 -0.006400 -0.517500 1.421900 21.186209 7.578088 -24.275446 -11.820530 -0.543476 -8.532570 26.986182 -20.892511 13.251885 5.372800 -9.382100 5.857800 -85.744789 8.605310 7.055362 11.112185 -12.394169 -1.819508 -0.271525 1.635275 26.956058 -7.125000 0.000000 0.000000 78.082975 -12.669045 14.951726 -12.727157 17.178837 -2.453083 0.926139 1.552932 39.869128 7.125000 0.000000 0.000000 
-0.368515 18.377304 7.984175 -8.756118 -1.616006 13.238564 -21.726569 -41.560765 18.222609 -3.760216 -2.451732 -2.956072 -13.912082 43.611600 -28.156241 0.388800 4.004100 11.088300 23.871267 26.892382 0.789487 3.484090 -0.778491 2.975539 7.621029 -24.907395 -1.126668 -0.005300 -0.469300 1.289500 21.314609 7.591181 -24.895631 -11.772290 -0.606732 -8.402033 26.896715 -20.631876 12.931232 5.414400 -9.303300 5.711600 -85.884973 8.886438 6.847829 11.172317 -12.467631 -1.837081 -0.261235 1.628177 26.841120 -7.125000 0.000000 0.000000 78.108377 -12.911440 15.516545 -12.720801 17.188958 -2.456863 0.923304 1.556434 39.760665 7.125000 0.000000 0.000000 
-0.369461 18.378670 7.983019 -8.822908 -1.574659 13.315454 -21.624514 -41.562144 18.160092 -3.760031 -2.445500 -2.955693 -13.884929 43.570956 -28.183063 0.393000 4.025500 11.148500 23.930673 26.885197 0.770786 3.488228 -0.756475 2.880951 7.645402 -25.025264 -1.044039 -0.006100 -0.504100 1.385300 21.584933 7.631121 -25.509539 -11.761294 -0.683916 -8.257619 26.812967 -20.338442 12.556320 5.467200 -9.214200 5.555700 -86.064744 9.140605 6.573042 11.216496 -12.519684 -1.850851 -0.237168 1.626620 26.770729 -7.125000 0.000000 0.000000 78.029825 -13.100892 16.485979 -12.642788 17.111412 -2.438990 0.926776 1.556131 39.249492 7.125000 0.000000 0.000000 
-0.371037 18.379616 8.000567 -9.027151 -1.303959 13.659709 -21.342663 -41.713362 18.082426 -3.751374 -2.448329 -3.053832 -13.918052 43.619213 -28.093500 0.388900 4.004600 11.089500 24.201066 26.649522 0.715790 3.502964 -0.679021 2.630902 7.627768 -25.074624 -0.968244 -0.005600 -0.481300 1.322600 21.613423 7.682229 -27.342240 -11.703286 -0.842582 -7.760112 26.579572 -19.884418 12.097478 5.554900 -9.073300 5.322700 -86.455126 9.971733 6.664517 11.478657 -12.821893 -1.892214 -0.307116 1.437727 26.543459 -7.125000 0.000000 0.000000 78.053018 -13.728044 18.065156 -12.486514 16.933626 -2.400315 0.938933 1.547529 38.339713 7.125000 0.000000 0.000000 
